<?xml version="1.0" encoding="UTF-8" standalone="no"?>
<!-- Created with Inkscape (http://www.inkscape.org/) -->

<svg
   width="210mm"
   height="297mm"
   viewBox="0 0 210 297"
   version="1.1"
   id="svg5"
   inkscape:version="1.1 (c68e22c387, 2021-05-23)"
   sodipodi:docname="logo.svg"
   xmlns:inkscape="http://www.inkscape.org/namespaces/inkscape"
   xmlns:sodipodi="http://sodipodi.sourceforge.net/DTD/sodipodi-0.dtd"
   xmlns="http://www.w3.org/2000/svg"
   xmlns:svg="http://www.w3.org/2000/svg">
  <sodipodi:namedview
     id="namedview7"
     pagecolor="#ffffff"
     bordercolor="#666666"
     borderopacity="1.0"
     inkscape:pageshadow="2"
     inkscape:pageopacity="0.0"
     inkscape:pagecheckerboard="0"
     inkscape:document-units="mm"
     showgrid="false"
     inkscape:zoom="0.79107744"
     inkscape:cx="396.92701"
     inkscape:cy="561.89189"
     inkscape:window-width="1920"
     inkscape:window-height="1051"
     inkscape:window-x="-9"
     inkscape:window-y="-9"
     inkscape:window-maximized="1"
     inkscape:current-layer="layer1" />
  <defs
     id="defs2" />
  <g
     inkscape:label="Layer 1"
     inkscape:groupmode="layer"
     id="layer1">
    <path
       style="fill:#ff5555;stroke-width:0.264583"
       d="m 142.03768,217.88214 c -1.36692,-11.266 -1.10048,-10.08866 -2.23979,-9.89721 -2.69772,0.45332 -9.32281,1.23524 -12.58502,1.48534 -4.68079,0.35887 -16.93662,0.35846 -21.44088,-7.9e-4 C 82.615456,207.62311 63.826805,200.78532 48.800144,188.7357 27.321054,171.51199 15.780405,143.57888 13.312795,102.84172 12.93017,96.52507 12.660106,83.11849 12.880161,81.3648 l 0.188332,-1.50088 1.107999,-0.17024 c 0.609399,-0.0936 1.469662,-0.23042 1.911697,-0.30396 l 0.803698,-0.13372 0.325369,6.11522 c 1.393575,26.19181 6.505691,49.72965 13.850585,63.77259 8.485486,16.22366 21.273582,26.56043 38.816078,31.3755 9.976797,2.73843 19.169457,3.71835 32.549071,3.46968 11.60696,-0.21573 21.11825,-1.27689 31.68583,-3.53518 l 3.21142,-0.68627 -0.12461,-0.95822 c -1.69618,-13.04347 -2.57059,-21.13797 -2.26495,-20.96693 1.38599,0.77564 42.65817,28.51846 42.66148,28.67669 0.004,0.18278 -32.17075,37.16504 -33.84621,38.90368 l -0.71351,0.74042 z"
       id="path1259"
       inkscape:export-filename="D:\Work\File Imam\Remapper\remapper.png"
       inkscape:export-xdpi="96"
       inkscape:export-ydpi="96" />
    <path
       style="fill:#ffcc00;stroke-width:0.264583"
       d="m 55.389243,55.094472 c 1.36692,11.266 1.10048,10.08866 2.23979,9.89721 2.69772,-0.45332 9.32281,-1.23524 12.58502,-1.48534 4.68079,-0.35887 16.93662,-0.35846 21.44088,7.9e-4 23.156537,1.84637 41.945187,8.68416 56.971847,20.73378 21.47909,17.223708 33.01974,45.156818 35.48735,85.893978 0.38262,6.31665 0.65269,19.72323 0.43263,21.47692 l -0.18833,1.50088 -1.108,0.17024 c -0.6094,0.0936 -1.46966,0.23042 -1.91169,0.30396 l -0.8037,0.13372 -0.32537,-6.11522 c -1.39358,-26.19181 -6.50569,-49.72965 -13.85059,-63.77259 -8.48548,-16.22366 -21.27358,-26.560428 -38.81607,-31.375498 -9.9768,-2.73843 -19.16946,-3.71835 -32.549077,-3.46968 -11.60696,0.21573 -21.11825,1.27689 -31.68583,3.53518 l -3.21142,0.68627 0.12461,0.95822 c 1.69618,13.043468 2.57059,21.137968 2.26495,20.966928 -1.38599,-0.77564 -42.65817,-28.518458 -42.66148,-28.676688 -0.004,-0.18278 32.17075,-37.16504 33.84621,-38.90368 l 0.71351,-0.74042 z"
       id="path1496"
       inkscape:export-filename="D:\Work\File Imam\Remapper\remapper.png"
       inkscape:export-xdpi="96"
       inkscape:export-ydpi="96" />
    <text
       xml:space="preserve"
       style="font-style:normal;font-weight:normal;font-size:40.1561px;line-height:1.25;font-family:sans-serif;fill:#000000;fill-opacity:1;stroke:#020202;stroke-width:1.0039;stroke-opacity:1"
       x="44.778931"
       y="145.84985"
       id="text2512"
       inkscape:export-filename="D:\Work\File Imam\Remapper\remapper.png"
       inkscape:export-xdpi="96"
       inkscape:export-ydpi="96"><tspan
         sodipodi:role="line"
         id="tspan2510"
         style="font-style:normal;font-variant:normal;font-weight:normal;font-stretch:normal;font-family:Consolas;-inkscape-font-specification:Consolas;stroke:#020202;stroke-width:1.0039;stroke-opacity:1"
         x="44.778931"
         y="145.84985"><tspan
           style="fill:#ff5555;stroke:#ff5555"
           id="tspan6024">MAP</tspan><tspan
           style="fill:#ffcc00;stroke:#ffcc00"
           id="tspan10782">()</tspan></tspan></text>
  </g>
</svg>
